<svg width="200" height="200" viewBox="0 0 200 200" xmlns="http://www.w3.org/2000/svg">
  <path d="M 55 90
           C 53 77, 56 61, 67 54
           C 74 49, 82 47, 88 50
           C 93 52, 97 57, 100 59
           C 103 57, 107 52, 112 50
           C 118 47, 126 49, 133 54
           C 144 61, 147 77, 145 90
           C 143 106, 136 123, 127 139
           C 124 146, 118 151, 115 145
           C 112 137, 108 132, 100 129
           C 92 132, 88 137, 85 145
           C 82 151, 76 146, 73 139
           C 64 123, 57 106, 55 90 Z"
        fill="none" stroke="#7C3AED" stroke-width="5.5" stroke-linecap="round" stroke-linejoin="round"/>
  <path d="M 85 70
           C 83 77, 85 83, 90 87
           C 94 90, 97 92, 100 93
           C 103 92, 106 90, 110 87
           C 115 83, 117 77, 115 70
           C 113 65, 108 62, 100 62
           C 92 62, 87 65, 85 70 Z"
        fill="none" stroke="#7C3AED" stroke-width="5.2" stroke-linecap="round" stroke-linejoin="round"/>
  <path d="M 94 91 C 91 102, 88 115, 86 129 C 85 136, 85 141, 86 143"
        fill="none" stroke="#7C3AED" stroke-width="5" stroke-linecap="round"/>
  <path d="M 106 91 C 109 102, 112 115, 114 129 C 115 136, 115 141, 114 143"
        fill="none" stroke="#7C3AED" stroke-width="5" stroke-linecap="round"/>
</svg>
