<svg width="200" height="200" viewBox="0 0 200 200" xmlns="http://www.w3.org/2000/svg">
  <path d="M 66 92
           C 64 80, 67 67, 76 61
           C 82 57, 89 55, 94 58
           C 97 59, 100 63, 100 63
           C 100 63, 103 59, 106 58
           C 111 55, 118 57, 124 61
           C 133 67, 136 80, 134 92
           C 132 106, 126 120, 121 131
           C 119 137, 115 141, 112 136
           C 109 129, 106 125, 100 122
           C 94 125, 91 129, 88 136
           C 85 141, 81 137, 79 131
           C 74 120, 68 106, 66 92 Z"
        fill="none" stroke="#7C3AED" stroke-width="5.5" stroke-linecap="round" stroke-linejoin="round"/>
  <path d="M 76 42
           C 66 45, 54 54, 50 65
           C 47 74, 50 84, 57 91
           C 60 94, 63 95, 66 93"
        fill="none" stroke="#7C3AED" stroke-width="5.5" stroke-linecap="round" stroke-linejoin="round"/>
  <path d="M 124 42
           C 134 45, 146 54, 150 65
           C 153 74, 150 84, 143 91
           C 140 94, 137 95, 134 93"
        fill="none" stroke="#7C3AED" stroke-width="5.5" stroke-linecap="round" stroke-linejoin="round"/>
  <circle cx="100" cy="42" r="3.5" fill="none" stroke="#7C3AED" stroke-width="5.2"/>
  <line x1="100" y1="162" x2="100" y2="151" stroke="#7C3AED" stroke-width="5" stroke-linecap="round"/>
  <path d="M 95 156 L 100 151 L 105 156" fill="none" stroke="#7C3AED" stroke-width="5" stroke-linecap="round" stroke-linejoin="round"/>
</svg>
